<svg id="Layer_1" height="512" viewBox="0 0 512 512" width="512" xmlns="http://www.w3.org/2000/svg" data-name="Layer 1"><path d="m316.96 424.4a96 96 0 1 1 83.04 47.82 95.391 95.391 0 0 1 -83.04-47.82z" fill="#50dd5a"/><path d="m208 246.38v240.92l-192-110.85v-240.9l.02-.01z" fill="#e29454"/><path d="m47 153.55.02-.01-31-18-.02.01v240.9l31 17.898z" fill="#ce834a"/><path d="m208 24.7 76.19 43.99-191.98 110.84h-.01l-76.18-43.99z" fill="#e29454"/><path d="m239 42.7-31-18-191.98 110.84 31.086 17.951z" fill="#e08b4b"/><path d="m459.37 325.18a7.159 7.159 0 0 1 -2.03 5.04l-29.55 30.32 16.47 56.43a4.885 4.885 0 0 1 -1.57 5.62 5 5 0 0 1 -6.55-.53l-15.52-15.52-8.54-8.54-10.6-10.6-32.95 33.91 15.17 25.48a5.648 5.648 0 0 1 .62 1.37 6.213 6.213 0 0 1 -1.93 6.24l-59.76-59.76c2.18-2.18 4.85-2.65 7.11-1.61l25.98 15.48 34.07-32.8-10.82-10.82-8.53-8.54-15.47-15.46a4.881 4.881 0 0 1 5.09-8.12l56.76 16.66 30.39-29.37a7.176 7.176 0 0 1 12.16 5.12z" fill="#e5f5fd"/><path d="m400 135.55v144.67a96.008 96.008 0 0 0 -83.04 144.18l-108.96 62.9v-240.92l191.98-110.84z" fill="#ce834a"/><path d="m141.14 207.78-.34.2v150.5l-25.35-28.8-23.25 9.6v-159.75h.01z" fill="#ed6337"/><path d="m333.13 96.94-191.99 110.84-48.93-28.25 191.98-110.84z" fill="#c24e38"/><path d="m208 246.38-66.86-38.6 191.99-110.84 66.85 38.6z" fill="#e29454"/><g fill="#284268"><path d="m244.852 292.88a6 6 0 0 0 5.29-3.16l5.618-10.451v64.149a6 6 0 0 0 12 0v-72.886l7.538 7.986a6 6 0 1 0 8.726-8.239l-17.9-18.963a6 6 0 0 0 -9.648 1.279l-16.9 31.443a6 6 0 0 0 5.281 8.842z"/><path d="m40.828 339.446a6 6 0 0 0 -6 6v25.92a6 6 0 0 0 12 0v-25.92a6 6 0 0 0 -6-6z"/><path d="m69.252 358.646a6 6 0 0 0 -6 6v23.354a6 6 0 0 0 12 0v-23.35a6 6 0 0 0 -6-6.004z"/><path d="m97.677 377.847a6 6 0 0 0 -6 6v20.56a6 6 0 0 0 12 0v-20.56a6 6 0 0 0 -6-6z"/><path d="m126.1 397.047a6 6 0 0 0 -6 6v17.771a6 6 0 0 0 12 0v-17.771a6 6 0 0 0 -6-6z"/><path d="m154.524 443.606a6 6 0 0 0 6-6v-15.36a6 6 0 0 0 -12 0v15.36a6 6 0 0 0 6 6z"/><path d="m276.661 354.333-31.887 18.409a6 6 0 1 0 6 10.393l31.887-18.409a6 6 0 0 0 -6-10.393z"/><path d="m406 274.4v-138.851c0-.019 0-.038 0-.057a5.983 5.983 0 0 0 -.2-1.485l-.015-.053a5.935 5.935 0 0 0 -3.1-3.786l-191.685-110.668a6 6 0 0 0 -6 0l-191.652 110.651a5.945 5.945 0 0 0 -3.13 3.8l-.015.053a5.983 5.983 0 0 0 -.2 1.485v.057 240.9a6 6 0 0 0 3 5.2l191.997 110.854a6 6 0 0 0 6 0l103.959-60.021a101.983 101.983 0 1 0 91.041-158.079zm-84.868-177.458-179.988 103.915-36.944-21.328 179.99-103.915zm-186.332 114.109v131.532l-14.849-16.868a6 6 0 0 0 -6.794-1.581l-14.957 6.177v-140.389zm73.2-179.426 64.19 37.06-179.99 103.915-64.19-37.06zm-6 445.286-180-103.924v-227.061l64.2 37.067v156.287a6 6 0 0 0 8.29 5.546l19.283-7.965 22.52 25.583a6 6 0 0 0 10.5-3.965v-140.5l55.2 31.87zm6-237.454-54.856-31.671 179.988-103.916 54.855 31.671zm6 237.454v-227.062l180-103.923v128.474a101.966 101.966 0 0 0 -85.079 147.7zm186-10.687a90 90 0 1 1 90-90 90.1 90.1 0 0 1 -90 90z"/><path d="m443.041 315.742-27.877 26.946-53.226-15.618a10.879 10.879 0 0 0 -11.208 18.063l30.5 30.5-26.372 25.377-22.047-13.131a5.98 5.98 0 0 0 -.549-.289c-4.66-2.159-9.978-1.083-13.871 2.811a6 6 0 0 0 0 8.485l59.756 59.757a6 6 0 0 0 8.485 0 12.161 12.161 0 0 0 3.451-12.17 11.715 11.715 0 0 0 -1.231-2.758l-12.817-21.515 25.509-26.249 30.356 30.349a10.878 10.878 0 0 0 18.065-11.2l-15.435-52.881 27.112-27.819a13.175 13.175 0 0 0 -18.6-18.659zm10 10.294-29.546 30.315a6 6 0 0 0 -1.463 5.868l15.351 52.593-31.655-31.654a6 6 0 0 0 -4.243-1.758h-.043a6 6 0 0 0 -4.259 1.819l-32.956 33.912a6 6 0 0 0 -.853 7.252l3.7 6.216-20.639-20.64 6.217 3.7a6 6 0 0 0 7.232-.833l34.069-32.8a6 6 0 0 0 .081-8.564l-31.8-31.805 52.906 15.523a5.993 5.993 0 0 0 5.859-1.443l30.38-29.365a1.182 1.182 0 0 1 1.646.012 1.172 1.172 0 0 1 .018 1.647z"/></g></svg>